G75*
%MOIN*%
%OFA0B0*%
%FSLAX25Y25*%
%IPPOS*%
%LPD*%
%AMOC8*
5,1,8,0,0,1.08239X$1,22.5*
%
%ADD10C,0.00600*%
%ADD11C,0.00500*%
%ADD12C,0.00400*%
D10*
X0006350Y0136400D02*
X0131350Y0136400D01*
X0131448Y0136402D01*
X0131546Y0136408D01*
X0131644Y0136417D01*
X0131741Y0136431D01*
X0131838Y0136448D01*
X0131934Y0136469D01*
X0132029Y0136494D01*
X0132123Y0136522D01*
X0132215Y0136555D01*
X0132307Y0136590D01*
X0132397Y0136630D01*
X0132485Y0136672D01*
X0132572Y0136719D01*
X0132656Y0136768D01*
X0132739Y0136821D01*
X0132819Y0136877D01*
X0132898Y0136937D01*
X0132974Y0136999D01*
X0133047Y0137064D01*
X0133118Y0137132D01*
X0133186Y0137203D01*
X0133251Y0137276D01*
X0133313Y0137352D01*
X0133373Y0137431D01*
X0133429Y0137511D01*
X0133482Y0137594D01*
X0133531Y0137678D01*
X0133578Y0137765D01*
X0133620Y0137853D01*
X0133660Y0137943D01*
X0133695Y0138035D01*
X0133728Y0138127D01*
X0133756Y0138221D01*
X0133781Y0138316D01*
X0133802Y0138412D01*
X0133819Y0138509D01*
X0133833Y0138606D01*
X0133842Y0138704D01*
X0133848Y0138802D01*
X0133850Y0138900D01*
X0133850Y0157900D01*
X0133848Y0157998D01*
X0133842Y0158096D01*
X0133833Y0158194D01*
X0133819Y0158291D01*
X0133802Y0158388D01*
X0133781Y0158484D01*
X0133756Y0158579D01*
X0133728Y0158673D01*
X0133695Y0158765D01*
X0133660Y0158857D01*
X0133620Y0158947D01*
X0133578Y0159035D01*
X0133531Y0159122D01*
X0133482Y0159206D01*
X0133429Y0159289D01*
X0133373Y0159369D01*
X0133313Y0159448D01*
X0133251Y0159524D01*
X0133186Y0159597D01*
X0133118Y0159668D01*
X0133047Y0159736D01*
X0132974Y0159801D01*
X0132898Y0159863D01*
X0132819Y0159923D01*
X0132739Y0159979D01*
X0132656Y0160032D01*
X0132572Y0160081D01*
X0132485Y0160128D01*
X0132397Y0160170D01*
X0132307Y0160210D01*
X0132215Y0160245D01*
X0132123Y0160278D01*
X0132029Y0160306D01*
X0131934Y0160331D01*
X0131838Y0160352D01*
X0131741Y0160369D01*
X0131644Y0160383D01*
X0131546Y0160392D01*
X0131448Y0160398D01*
X0131350Y0160400D01*
X0006350Y0160400D01*
X0006252Y0160398D01*
X0006154Y0160392D01*
X0006056Y0160383D01*
X0005959Y0160369D01*
X0005862Y0160352D01*
X0005766Y0160331D01*
X0005671Y0160306D01*
X0005577Y0160278D01*
X0005485Y0160245D01*
X0005393Y0160210D01*
X0005303Y0160170D01*
X0005215Y0160128D01*
X0005128Y0160081D01*
X0005044Y0160032D01*
X0004961Y0159979D01*
X0004881Y0159923D01*
X0004802Y0159863D01*
X0004726Y0159801D01*
X0004653Y0159736D01*
X0004582Y0159668D01*
X0004514Y0159597D01*
X0004449Y0159524D01*
X0004387Y0159448D01*
X0004327Y0159369D01*
X0004271Y0159289D01*
X0004218Y0159206D01*
X0004169Y0159122D01*
X0004122Y0159035D01*
X0004080Y0158947D01*
X0004040Y0158857D01*
X0004005Y0158765D01*
X0003972Y0158673D01*
X0003944Y0158579D01*
X0003919Y0158484D01*
X0003898Y0158388D01*
X0003881Y0158291D01*
X0003867Y0158194D01*
X0003858Y0158096D01*
X0003852Y0157998D01*
X0003850Y0157900D01*
X0003850Y0138900D01*
X0003852Y0138802D01*
X0003858Y0138704D01*
X0003867Y0138606D01*
X0003881Y0138509D01*
X0003898Y0138412D01*
X0003919Y0138316D01*
X0003944Y0138221D01*
X0003972Y0138127D01*
X0004005Y0138035D01*
X0004040Y0137943D01*
X0004080Y0137853D01*
X0004122Y0137765D01*
X0004169Y0137678D01*
X0004218Y0137594D01*
X0004271Y0137511D01*
X0004327Y0137431D01*
X0004387Y0137352D01*
X0004449Y0137276D01*
X0004514Y0137203D01*
X0004582Y0137132D01*
X0004653Y0137064D01*
X0004726Y0136999D01*
X0004802Y0136937D01*
X0004881Y0136877D01*
X0004961Y0136821D01*
X0005044Y0136768D01*
X0005128Y0136719D01*
X0005215Y0136672D01*
X0005303Y0136630D01*
X0005393Y0136590D01*
X0005485Y0136555D01*
X0005577Y0136522D01*
X0005671Y0136494D01*
X0005766Y0136469D01*
X0005862Y0136448D01*
X0005959Y0136431D01*
X0006056Y0136417D01*
X0006154Y0136408D01*
X0006252Y0136402D01*
X0006350Y0136400D01*
D11*
X0054500Y0018000D02*
X0054500Y0013000D01*
X0076500Y0013000D01*
X0076500Y0053000D01*
X0054500Y0053000D01*
X0054500Y0048000D01*
X0059500Y0048000D01*
X0059500Y0018000D01*
X0054500Y0018000D01*
X0054500Y0048000D01*
X0069000Y0058500D02*
X0069000Y0088500D01*
X0091000Y0088500D01*
X0091000Y0083500D01*
X0086000Y0083500D01*
X0086000Y0063500D01*
X0091000Y0063500D01*
X0091000Y0083500D01*
X0091000Y0063500D02*
X0091000Y0058500D01*
X0069000Y0058500D01*
X0100826Y0128900D02*
X0103829Y0128900D01*
X0102328Y0128900D02*
X0102328Y0133404D01*
X0103829Y0131903D01*
X0105430Y0132653D02*
X0105430Y0131152D01*
X0106181Y0130401D01*
X0108433Y0130401D01*
X0108433Y0128900D02*
X0108433Y0133404D01*
X0106181Y0133404D01*
X0105430Y0132653D01*
X0126201Y0133404D02*
X0129204Y0133404D01*
X0129204Y0131152D01*
X0127703Y0131903D01*
X0126952Y0131903D01*
X0126201Y0131152D01*
X0126201Y0129651D01*
X0126952Y0128900D01*
X0128453Y0128900D01*
X0129204Y0129651D01*
X0130805Y0128900D02*
X0133808Y0128900D01*
X0130805Y0131903D01*
X0130805Y0132653D01*
X0131556Y0133404D01*
X0133057Y0133404D01*
X0133808Y0132653D01*
X0011704Y0131903D02*
X0010203Y0133404D01*
X0010203Y0128900D01*
X0011704Y0128900D02*
X0008701Y0128900D01*
D12*
X0052644Y0076429D02*
X0051877Y0075662D01*
X0051877Y0074894D01*
X0054946Y0071825D01*
X0051877Y0071825D01*
X0052644Y0076429D02*
X0054179Y0076429D01*
X0054946Y0075662D01*
X0056481Y0075662D02*
X0056481Y0074127D01*
X0057248Y0073360D01*
X0059550Y0073360D01*
X0059550Y0071825D02*
X0059550Y0076429D01*
X0057248Y0076429D01*
X0056481Y0075662D01*
X0083019Y0037804D02*
X0082252Y0037037D01*
X0082252Y0036269D01*
X0083019Y0035502D01*
X0082252Y0034735D01*
X0082252Y0033967D01*
X0083019Y0033200D01*
X0084554Y0033200D01*
X0085321Y0033967D01*
X0083786Y0035502D02*
X0083019Y0035502D01*
X0083019Y0037804D02*
X0084554Y0037804D01*
X0085321Y0037037D01*
X0086856Y0037037D02*
X0086856Y0035502D01*
X0087623Y0034735D01*
X0089925Y0034735D01*
X0089925Y0033200D02*
X0089925Y0037804D01*
X0087623Y0037804D01*
X0086856Y0037037D01*
M02*
