%
M48
M72
T01C0.0360
T02C0.0400
T03C0.1339
%
T01
X885Y14340
X885Y15340
X1885Y15340
X1885Y14340
X2885Y14340
X2885Y15340
X3885Y15340
X3885Y14340
X4885Y14340
X4885Y15340
X5885Y15340
X5885Y14340
X6885Y14340
X6885Y15340
X7885Y15340
X7885Y14340
X8885Y14340
X8885Y15340
X9885Y15340
X9885Y14340
X10885Y14340
X10885Y15340
X11885Y15340
X11885Y14340
X12885Y14340
X12885Y15340
T02
X6450Y1800
X6450Y2800
X6450Y3800
X6450Y4800
X8100Y6350
X8100Y7350
X8100Y8350
T03
X10135Y1350
M30
