G75*
%MOIN*%
%OFA0B0*%
%FSLAX25Y25*%
%IPPOS*%
%LPD*%
%AMOC8*
5,1,8,0,0,1.08239X$1,22.5*
%
%ADD10C,0.00000*%
D10*
X0036000Y0001000D02*
X0036000Y0113500D01*
X0035998Y0113681D01*
X0035991Y0113862D01*
X0035980Y0114043D01*
X0035965Y0114224D01*
X0035945Y0114404D01*
X0035921Y0114584D01*
X0035893Y0114763D01*
X0035860Y0114941D01*
X0035823Y0115118D01*
X0035782Y0115295D01*
X0035737Y0115470D01*
X0035687Y0115645D01*
X0035633Y0115818D01*
X0035575Y0115989D01*
X0035513Y0116160D01*
X0035446Y0116328D01*
X0035376Y0116495D01*
X0035302Y0116661D01*
X0035223Y0116824D01*
X0035141Y0116985D01*
X0035055Y0117145D01*
X0034965Y0117302D01*
X0034871Y0117457D01*
X0034774Y0117610D01*
X0034672Y0117760D01*
X0034568Y0117908D01*
X0034459Y0118054D01*
X0034348Y0118196D01*
X0034232Y0118336D01*
X0034114Y0118473D01*
X0033992Y0118608D01*
X0033867Y0118739D01*
X0033739Y0118867D01*
X0033608Y0118992D01*
X0033473Y0119114D01*
X0033336Y0119232D01*
X0033196Y0119348D01*
X0033054Y0119459D01*
X0032908Y0119568D01*
X0032760Y0119672D01*
X0032610Y0119774D01*
X0032457Y0119871D01*
X0032302Y0119965D01*
X0032145Y0120055D01*
X0031985Y0120141D01*
X0031824Y0120223D01*
X0031661Y0120302D01*
X0031495Y0120376D01*
X0031328Y0120446D01*
X0031160Y0120513D01*
X0030989Y0120575D01*
X0030818Y0120633D01*
X0030645Y0120687D01*
X0030470Y0120737D01*
X0030295Y0120782D01*
X0030118Y0120823D01*
X0029941Y0120860D01*
X0029763Y0120893D01*
X0029584Y0120921D01*
X0029404Y0120945D01*
X0029224Y0120965D01*
X0029043Y0120980D01*
X0028862Y0120991D01*
X0028681Y0120998D01*
X0028500Y0121000D01*
X0001000Y0121000D01*
X0001000Y0163100D01*
X0137500Y0163100D01*
X0137500Y0121000D01*
X0123500Y0121000D01*
X0123319Y0120998D01*
X0123138Y0120991D01*
X0122957Y0120980D01*
X0122776Y0120965D01*
X0122596Y0120945D01*
X0122416Y0120921D01*
X0122237Y0120893D01*
X0122059Y0120860D01*
X0121882Y0120823D01*
X0121705Y0120782D01*
X0121530Y0120737D01*
X0121355Y0120687D01*
X0121182Y0120633D01*
X0121011Y0120575D01*
X0120840Y0120513D01*
X0120672Y0120446D01*
X0120505Y0120376D01*
X0120339Y0120302D01*
X0120176Y0120223D01*
X0120015Y0120141D01*
X0119855Y0120055D01*
X0119698Y0119965D01*
X0119543Y0119871D01*
X0119390Y0119774D01*
X0119240Y0119672D01*
X0119092Y0119568D01*
X0118946Y0119459D01*
X0118804Y0119348D01*
X0118664Y0119232D01*
X0118527Y0119114D01*
X0118392Y0118992D01*
X0118261Y0118867D01*
X0118133Y0118739D01*
X0118008Y0118608D01*
X0117886Y0118473D01*
X0117768Y0118336D01*
X0117652Y0118196D01*
X0117541Y0118054D01*
X0117432Y0117908D01*
X0117328Y0117760D01*
X0117226Y0117610D01*
X0117129Y0117457D01*
X0117035Y0117302D01*
X0116945Y0117145D01*
X0116859Y0116985D01*
X0116777Y0116824D01*
X0116698Y0116661D01*
X0116624Y0116495D01*
X0116554Y0116328D01*
X0116487Y0116160D01*
X0116425Y0115989D01*
X0116367Y0115818D01*
X0116313Y0115645D01*
X0116263Y0115470D01*
X0116218Y0115295D01*
X0116177Y0115118D01*
X0116140Y0114941D01*
X0116107Y0114763D01*
X0116079Y0114584D01*
X0116055Y0114404D01*
X0116035Y0114224D01*
X0116020Y0114043D01*
X0116009Y0113862D01*
X0116002Y0113681D01*
X0116000Y0113500D01*
X0116000Y0001000D01*
X0036000Y0001000D01*
M02*
