G75*
%MOIN*%
%OFA0B0*%
%FSLAX25Y25*%
%IPPOS*%
%LPD*%
%AMOC8*
5,1,8,0,0,1.08239X$1,22.5*
%
%ADD10C,0.05400*%
%ADD11OC8,0.05400*%
%ADD12R,0.07400X0.07400*%
%ADD13C,0.07400*%
%ADD14C,0.02400*%
%ADD15C,0.20000*%
D10*
X0008850Y0143400D03*
D11*
X0008850Y0153400D03*
X0018850Y0153400D03*
X0018850Y0143400D03*
X0028850Y0143400D03*
X0028850Y0153400D03*
X0038850Y0153400D03*
X0038850Y0143400D03*
X0048850Y0143400D03*
X0048850Y0153400D03*
X0058850Y0153400D03*
X0058850Y0143400D03*
X0068850Y0143400D03*
X0068850Y0153400D03*
X0078850Y0153400D03*
X0078850Y0143400D03*
X0088850Y0143400D03*
X0088850Y0153400D03*
X0098850Y0153400D03*
X0098850Y0143400D03*
X0108850Y0143400D03*
X0108850Y0153400D03*
X0118850Y0153400D03*
X0118850Y0143400D03*
X0128850Y0143400D03*
X0128850Y0153400D03*
D12*
X0081000Y0083500D03*
X0064500Y0018000D03*
D13*
X0064500Y0028000D03*
X0064500Y0038000D03*
X0064500Y0048000D03*
X0081000Y0063500D03*
X0081000Y0073500D03*
D14*
X0046000Y0048500D02*
X0046000Y0026000D01*
X0054000Y0018000D01*
X0064500Y0018000D01*
X0064625Y0037875D02*
X0064500Y0038000D01*
X0064625Y0037875D02*
X0087875Y0037875D01*
X0101000Y0051000D01*
X0101000Y0101000D01*
X0068850Y0133150D01*
X0068850Y0143400D01*
X0081000Y0083500D02*
X0046000Y0048500D01*
X0064500Y0048000D02*
X0064500Y0057000D01*
X0081000Y0073500D01*
D15*
X0101350Y0013500D03*
M02*
