  0
SECTION
  2
HEADER
  9
$ACADVER
  1
AC1009
  9
$FILLMODE
 70
0
  9
$EXTMIN
 10
0.000000
 20
0.000000
 30
0.000000
  9
$EXTMAX
 10
1.365000
 20
1.621000
 30
0.000000
  0
ENDSEC
  0
SECTION
  2
TABLES
  0
TABLE
  2
LTYPE
 70
1
  0
LTYPE
  2
CONTINUOUS
 70
64
  3
Solid line
 72
65
 73
0
 40
0
  0
ENDTAB
  0
TABLE
  2
LAYER
 70
255
  0
LAYER
  2
1
 70
64
 62
22
  6
CONTINUOUS
  0
LAYER
  2
16
 70
64
 62
175
  6
CONTINUOUS
  0
LAYER
  2
17
 70
64
 62
82
  6
CONTINUOUS
  0
LAYER
  2
18
 70
64
 62
82
  6
CONTINUOUS
  0
LAYER
  2
19
 70
64
 62
53
  6
CONTINUOUS
  0
LAYER
  2
20
 70
64
 62
7
  6
CONTINUOUS
  0
LAYER
  2
21
 70
64
 62
2
  6
CONTINUOUS
  0
LAYER
  2
22
 70
64
 62
4
  6
CONTINUOUS
  0
LAYER
  2
23
 70
64
 62
2
  6
CONTINUOUS
  0
LAYER
  2
24
 70
64
 62
4
  6
CONTINUOUS
  0
LAYER
  2
25
 70
64
 62
2
  6
CONTINUOUS
  0
LAYER
  2
26
 70
64
 62
4
  6
CONTINUOUS
  0
LAYER
  2
27
 70
64
 62
2
  6
CONTINUOUS
  0
LAYER
  2
28
 70
64
 62
4
  6
CONTINUOUS
  0
LAYER
  2
39
 70
64
 62
22
  6
CONTINUOUS
  0
LAYER
  2
40
 70
64
 62
175
  6
CONTINUOUS
  0
LAYER
  2
41
 70
64
 62
22
  6
CONTINUOUS
  0
LAYER
  2
42
 70
64
 62
175
  6
CONTINUOUS
  0
LAYER
  2
43
 70
64
 62
82
  6
CONTINUOUS
  0
LAYER
  2
48
 70
64
 62
253
  6
CONTINUOUS
  0
LAYER
  2
49
 70
64
 62
253
  6
CONTINUOUS
  0
LAYER
  2
51
 70
64
 62
253
  6
CONTINUOUS
  0
LAYER
  2
52
 70
64
 62
253
  6
CONTINUOUS
  0
LAYER
  2
101
 70
64
 62
1
  6
CONTINUOUS
  0
LAYER
  2
102
 70
64
 62
253
  6
CONTINUOUS
  0
LAYER
  2
103
 70
64
 62
253
  6
CONTINUOUS
  0
LAYER
  2
104
 70
64
 62
251
  6
CONTINUOUS
  0
LAYER
  2
105
 70
64
 62
253
  6
CONTINUOUS
  0
LAYER
  2
106
 70
64
 62
253
  6
CONTINUOUS
  0
LAYER
  2
107
 70
64
 62
253
  6
CONTINUOUS
  0
LAYER
  2
108
 70
64
 62
253
  6
CONTINUOUS
  0
LAYER
  2
109
 70
64
 62
253
  6
CONTINUOUS
  0
LAYER
  2
110
 70
64
 62
253
  6
CONTINUOUS
  0
LAYER
  2
111
 70
64
 62
253
  6
CONTINUOUS
  0
LAYER
  2
112
 70
64
 62
253
  6
CONTINUOUS
  0
LAYER
  2
113
 70
64
 62
22
  6
CONTINUOUS
  0
LAYER
  2
116
 70
64
 62
5
  6
CONTINUOUS
  0
LAYER
  2
121
 70
64
 62
253
  6
CONTINUOUS
  0
LAYER
  2
122
 70
64
 62
253
  6
CONTINUOUS
  0
LAYER
  2
123
 70
64
 62
253
  6
CONTINUOUS
  0
LAYER
  2
124
 70
64
 62
253
  6
CONTINUOUS
  0
LAYER
  2
125
 70
64
 62
253
  6
CONTINUOUS
  0
LAYER
  2
126
 70
64
 62
253
  6
CONTINUOUS
  0
LAYER
  2
127
 70
64
 62
253
  6
CONTINUOUS
  0
LAYER
  2
128
 70
64
 62
253
  6
CONTINUOUS
  0
LAYER
  2
129
 70
64
 62
253
  6
CONTINUOUS
  0
LAYER
  2
131
 70
64
 62
253
  6
CONTINUOUS
  0
LAYER
  2
132
 70
64
 62
253
  6
CONTINUOUS
  0
LAYER
  2
144
 70
64
 62
253
  6
CONTINUOUS
  0
LAYER
  2
150
 70
64
 62
253
  6
CONTINUOUS
  0
LAYER
  2
151
 70
64
 62
253
  6
CONTINUOUS
  0
LAYER
  2
152
 70
64
 62
253
  6
CONTINUOUS
  0
LAYER
  2
153
 70
64
 62
253
  6
CONTINUOUS
  0
LAYER
  2
154
 70
64
 62
253
  6
CONTINUOUS
  0
LAYER
  2
155
 70
64
 62
253
  6
CONTINUOUS
  0
LAYER
  2
199
 70
64
 62
253
  6
CONTINUOUS
  0
LAYER
  2
200
 70
64
 62
175
  6
CONTINUOUS
  0
LAYER
  2
201
 70
64
 62
82
  6
CONTINUOUS
  0
LAYER
  2
202
 70
64
 62
140
  6
CONTINUOUS
  0
LAYER
  2
203
 70
64
 62
22
  6
CONTINUOUS
  0
LAYER
  2
204
 70
64
 62
213
  6
CONTINUOUS
  0
LAYER
  2
205
 70
64
 62
53
  6
CONTINUOUS
  0
LAYER
  2
206
 70
64
 62
253
  6
CONTINUOUS
  0
LAYER
  2
207
 70
64
 62
250
  6
CONTINUOUS
  0
LAYER
  2
208
 70
64
 62
5
  6
CONTINUOUS
  0
LAYER
  2
209
 70
64
 62
253
  6
CONTINUOUS
  0
LAYER
  2
210
 70
64
 62
253
  6
CONTINUOUS
  0
LAYER
  2
211
 70
64
 62
253
  6
CONTINUOUS
  0
LAYER
  2
212
 70
64
 62
253
  6
CONTINUOUS
  0
LAYER
  2
213
 70
64
 62
253
  6
CONTINUOUS
  0
LAYER
  2
214
 70
64
 62
253
  6
CONTINUOUS
  0
LAYER
  2
215
 70
64
 62
253
  6
CONTINUOUS
  0
LAYER
  2
216
 70
64
 62
253
  6
CONTINUOUS
  0
LAYER
  2
225
 70
64
 62
253
  6
CONTINUOUS
  0
LAYER
  2
226
 70
64
 62
253
  6
CONTINUOUS
  0
LAYER
  2
227
 70
64
 62
253
  6
CONTINUOUS
  0
LAYER
  2
228
 70
64
 62
253
  6
CONTINUOUS
  0
LAYER
  2
229
 70
64
 62
253
  6
CONTINUOUS
  0
LAYER
  2
230
 70
64
 62
253
  6
CONTINUOUS
  0
LAYER
  2
231
 70
64
 62
253
  6
CONTINUOUS
  0
LAYER
  2
248
 70
64
 62
253
  6
CONTINUOUS
  0
LAYER
  2
249
 70
64
 62
253
  6
CONTINUOUS
  0
LAYER
  2
254
 70
64
 62
253
  6
CONTINUOUS
  0
LAYER
  2
255
 70
64
 62
253
  6
CONTINUOUS
  0
ENDTAB
  0
ENDSEC
  0
SECTION
  2
BLOCKS
  0
BLOCK
  8
0
  2
RECT
 70
64
 10
0.000000
 20
0.000000
 30
0.000000
  3
RECT
  0
SOLID
  8
0
 10
-0.500000
 20
-0.500000
 30
0.000000
 11
0.500000
 21
-0.500000
 31
0.000000
 12
-0.500000
 22
0.500000
 32
0.000000
 13
0.500000
 23
0.500000
 33
0.000000
  0
ENDBLK
  8
0
  0
BLOCK
  8
0
  2
PIE
 70
64
 10
0.000000
 20
0.000000
 30
0.000000
  3
PIE
  0
CIRCLE
  8
0
 10
0.000000
 20
0.000000
 30
0.000000
 40
0.500000
  0
ENDBLK
  8
0
  0
BLOCK
  8
0
  2
OCTAGONP
 70
64
 10
0.000000
 20
0.000000
 30
0.000000
  3
OCTAGONP
  0
POLYLINE
  8
0
 66
1
 10
0.000000
 20
0.000000
 30
0.000000
 40
0.000000
 41
0.000000
 70
1
  0
VERTEX
  8
0
 10
-0.500000
 20
-0.207107
 30
0.000000
  0
VERTEX
  8
0
 10
-0.500000
 20
0.207107
 30
0.000000
  0
VERTEX
  8
0
 10
-0.207107
 20
0.500000
 30
0.000000
  0
VERTEX
  8
0
 10
0.207107
 20
0.500000
 30
0.000000
  0
VERTEX
  8
0
 10
0.500000
 20
0.207107
 30
0.000000
  0
VERTEX
  8
0
 10
0.500000
 20
-0.207107
 30
0.000000
  0
VERTEX
  8
0
 10
0.207107
 20
-0.500000
 30
0.000000
  0
VERTEX
  8
0
 10
-0.207107
 20
-0.500000
 30
0.000000
  0
SEQEND
  8
0
  0
ENDBLK
  8
0
  0
BLOCK
  8
0
  2
SQUAREP
 70
64
 10
0.000000
 20
0.000000
 30
0.000000
  3
SQUAREP
  0
SOLID
  8
0
 10
-0.500000
 20
-0.500000
 30
0.000000
 11
0.500000
 21
-0.500000
 31
0.000000
 12
-0.500000
 22
0.500000
 32
0.000000
 13
0.500000
 23
0.500000
 33
0.000000
  0
ENDBLK
  8
0
  0
BLOCK
  8
0
  2
ROUNDP
 70
64
 10
0.000000
 20
0.000000
 30
0.000000
  3
ROUNDP
  0
CIRCLE
  8
0
 10
0.000000
 20
0.000000
 30
0.000000
 40
0.500000
  0
ENDBLK
  8
0
  0
BLOCK
  8
0
  2
ANNULUSP
 70
64
 10
0.000000
 20
0.000000
 30
0.000000
  3
ANNULUSP
  0
CIRCLE
  8
0
 10
0.000000
 20
0.000000
 30
0.000000
 40
0.500000
  0
ENDBLK
  8
0
  0
BLOCK
  8
0
  2
THERMALP
 70
64
 10
0.000000
 20
0.000000
 30
0.000000
  3
THERMALP
  0
LINE
  8
0
 10
-0.237868
 20
0.450000
 30
0.000000
 11
0.237868
 21
0.450000
 31
0.000000
  0
LINE
  8
0
 10
0.450000
 20
0.237868
 30
0.000000
 11
0.450000
 21
-0.237868
 31
0.000000
  0
LINE
  8
0
 10
0.237868
 20
-0.450000
 30
0.000000
 11
-0.237868
 21
-0.450000
 31
0.000000
  0
LINE
  8
0
 10
-0.450000
 20
-0.237868
 30
0.000000
 11
-0.450000
 21
0.237868
 31
0.000000
  0
ENDBLK
  8
0
  0
BLOCK
  8
0
  2
OCTAGONV
 70
64
 10
0.000000
 20
0.000000
 30
0.000000
  3
OCTAGONV
  0
POLYLINE
  8
0
 66
1
 10
0.000000
 20
0.000000
 30
0.000000
 40
0.000000
 41
0.000000
 70
1
  0
VERTEX
  8
0
 10
-0.500000
 20
-0.207107
 30
0.000000
  0
VERTEX
  8
0
 10
-0.500000
 20
0.207107
 30
0.000000
  0
VERTEX
  8
0
 10
-0.207107
 20
0.500000
 30
0.000000
  0
VERTEX
  8
0
 10
0.207107
 20
0.500000
 30
0.000000
  0
VERTEX
  8
0
 10
0.500000
 20
0.207107
 30
0.000000
  0
VERTEX
  8
0
 10
0.500000
 20
-0.207107
 30
0.000000
  0
VERTEX
  8
0
 10
0.207107
 20
-0.500000
 30
0.000000
  0
VERTEX
  8
0
 10
-0.207107
 20
-0.500000
 30
0.000000
  0
SEQEND
  8
0
  0
ENDBLK
  8
0
  0
BLOCK
  8
0
  2
SQUAREV
 70
64
 10
0.000000
 20
0.000000
 30
0.000000
  3
SQUAREV
  0
SOLID
  8
0
 10
-0.500000
 20
-0.500000
 30
0.000000
 11
0.500000
 21
-0.500000
 31
0.000000
 12
-0.500000
 22
0.500000
 32
0.000000
 13
0.500000
 23
0.500000
 33
0.000000
  0
ENDBLK
  8
0
  0
BLOCK
  8
0
  2
ROUNDV
 70
64
 10
0.000000
 20
0.000000
 30
0.000000
  3
ROUNDV
  0
CIRCLE
  8
0
 10
0.000000
 20
0.000000
 30
0.000000
 40
0.500000
  0
ENDBLK
  8
0
  0
BLOCK
  8
0
  2
ANNULUSV
 70
64
 10
0.000000
 20
0.000000
 30
0.000000
  3
ANNULUSV
  0
CIRCLE
  8
0
 10
0.000000
 20
0.000000
 30
0.000000
 40
0.500000
  0
ENDBLK
  8
0
  0
BLOCK
  8
0
  2
THERMALV
 70
64
 10
0.000000
 20
0.000000
 30
0.000000
  3
THERMALV
  0
LINE
  8
0
 10
-0.237868
 20
0.450000
 30
0.000000
 11
0.237868
 21
0.450000
 31
0.000000
  0
LINE
  8
0
 10
0.450000
 20
0.237868
 30
0.000000
 11
0.450000
 21
-0.237868
 31
0.000000
  0
LINE
  8
0
 10
0.237868
 20
-0.450000
 30
0.000000
 11
-0.237868
 21
-0.450000
 31
0.000000
  0
LINE
  8
0
 10
-0.450000
 20
-0.237868
 30
0.000000
 11
-0.450000
 21
0.237868
 31
0.000000
  0
ENDBLK
  8
0
  0
ENDSEC
  0
SECTION
  2
ENTITIES
  0
LINE
  8
20
 10
0.350000
 20
0.000000
 30
0.000000
 11
1.150000
 21
0.000000
 31
0.000000
  0
LINE
  8
20
 10
1.365000
 20
1.621000
 30
0.000000
 11
0.000000
 21
1.621000
 31
0.000000
  0
LINE
  8
20
 10
0.000000
 20
1.621000
 30
0.000000
 11
0.000000
 21
1.200000
 31
0.000000
  0
LINE
  8
20
 10
0.000000
 20
1.200000
 30
0.000000
 11
0.275000
 21
1.200000
 31
0.000000
  0
LINE
  8
20
 10
0.350000
 20
1.125000
 30
0.000000
 11
0.350000
 21
0.000000
 31
0.000000
  0
LINE
  8
20
 10
1.150000
 20
1.125000
 30
0.000000
 11
1.150000
 21
0.000000
 31
0.000000
  0
LINE
  8
20
 10
1.365000
 20
1.200000
 30
0.000000
 11
1.365000
 21
1.621000
 31
0.000000
  0
ARC
  8
20
 10
0.275000
 20
1.125000
 30
0.000000
 40
0.075000
 50
0.000000
 51
90.000000
  0
LINE
  8
20
 10
1.365000
 20
1.200000
 30
0.000000
 11
1.225000
 21
1.200000
 31
0.000000
  0
ARC
  8
20
 10
1.225000
 20
1.125000
 30
0.000000
 40
0.075000
 50
90.000000
 51
180.000000
  0
POINT
  8
24
 10
0.678500
 20
1.474000
 30
0.000000
  0
LINE
  8
22
 10
0.028500
 20
1.569000
 30
0.000000
 11
0.028500
 21
1.379000
 31
0.000000
  0
ARC
  8
22
 10
0.053500
 20
1.379000
 30
0.000000
 40
0.025000
 50
180.000000
 51
270.000000
  0
ARC
  8
22
 10
0.053500
 20
1.569000
 30
0.000000
 40
0.025000
 50
90.000000
 51
180.000000
  0
LINE
  8
22
 10
0.053500
 20
1.354000
 30
0.000000
 11
1.303500
 21
1.354000
 31
0.000000
  0
LINE
  8
22
 10
1.328500
 20
1.569000
 30
0.000000
 11
1.328500
 21
1.379000
 31
0.000000
  0
LINE
  8
22
 10
0.053500
 20
1.594000
 30
0.000000
 11
1.303500
 21
1.594000
 31
0.000000
  0
ARC
  8
22
 10
1.303500
 20
1.379000
 30
0.000000
 40
0.025000
 50
270.000000
 51
0.000000
  0
ARC
  8
22
 10
1.303500
 20
1.569000
 30
0.000000
 40
0.025000
 50
0.000000
 51
90.000000
  0
TEXT
  7
ISOCP
  8
22
 10
0.063500
 20
1.326500
 30
0.000000
 40
0.050000
  1
1
 71
2
 72
2
 73
3
 11
0.063500
 21
1.326500
 31
0.000000
  0
TEXT
  7
ISOCP
  8
22
 10
1.238500
 20
1.326500
 30
0.000000
 40
0.050000
  1
25
 71
2
 72
2
 73
3
 11
1.238500
 21
1.326500
 31
0.000000
  0
CIRCLE
  8
52
 10
0.078500
 20
1.524000
 30
0.000000
 40
0.005000
  0
CIRCLE
  8
52
 10
0.078500
 20
1.424000
 30
0.000000
 40
0.005000
  0
CIRCLE
  8
52
 10
0.178500
 20
1.524000
 30
0.000000
 40
0.005000
  0
CIRCLE
  8
52
 10
0.178500
 20
1.424000
 30
0.000000
 40
0.005000
  0
CIRCLE
  8
52
 10
0.278500
 20
1.524000
 30
0.000000
 40
0.005000
  0
CIRCLE
  8
52
 10
0.278500
 20
1.424000
 30
0.000000
 40
0.005000
  0
CIRCLE
  8
52
 10
0.378500
 20
1.524000
 30
0.000000
 40
0.005000
  0
CIRCLE
  8
52
 10
0.378500
 20
1.424000
 30
0.000000
 40
0.005000
  0
CIRCLE
  8
52
 10
0.478500
 20
1.524000
 30
0.000000
 40
0.005000
  0
CIRCLE
  8
52
 10
0.478500
 20
1.424000
 30
0.000000
 40
0.005000
  0
CIRCLE
  8
52
 10
0.078500
 20
1.524000
 30
0.000000
 40
0.035000
  0
CIRCLE
  8
52
 10
0.078500
 20
1.424000
 30
0.000000
 40
0.035000
  0
CIRCLE
  8
52
 10
0.178500
 20
1.424000
 30
0.000000
 40
0.035000
  0
CIRCLE
  8
52
 10
0.278500
 20
1.424000
 30
0.000000
 40
0.035000
  0
CIRCLE
  8
52
 10
0.378500
 20
1.424000
 30
0.000000
 40
0.035000
  0
CIRCLE
  8
52
 10
0.478500
 20
1.424000
 30
0.000000
 40
0.035000
  0
CIRCLE
  8
52
 10
0.178500
 20
1.524000
 30
0.000000
 40
0.035000
  0
CIRCLE
  8
52
 10
0.278500
 20
1.524000
 30
0.000000
 40
0.035000
  0
CIRCLE
  8
52
 10
0.378500
 20
1.524000
 30
0.000000
 40
0.035000
  0
CIRCLE
  8
52
 10
0.478500
 20
1.524000
 30
0.000000
 40
0.035000
  0
CIRCLE
  8
52
 10
0.578500
 20
1.524000
 30
0.000000
 40
0.005000
  0
CIRCLE
  8
52
 10
0.578500
 20
1.424000
 30
0.000000
 40
0.005000
  0
CIRCLE
  8
52
 10
0.678500
 20
1.524000
 30
0.000000
 40
0.005000
  0
CIRCLE
  8
52
 10
0.678500
 20
1.424000
 30
0.000000
 40
0.005000
  0
CIRCLE
  8
52
 10
0.778500
 20
1.524000
 30
0.000000
 40
0.005000
  0
CIRCLE
  8
52
 10
0.778500
 20
1.424000
 30
0.000000
 40
0.005000
  0
CIRCLE
  8
52
 10
0.878500
 20
1.524000
 30
0.000000
 40
0.005000
  0
CIRCLE
  8
52
 10
0.878500
 20
1.424000
 30
0.000000
 40
0.005000
  0
CIRCLE
  8
52
 10
0.978500
 20
1.524000
 30
0.000000
 40
0.005000
  0
CIRCLE
  8
52
 10
0.978500
 20
1.424000
 30
0.000000
 40
0.005000
  0
CIRCLE
  8
52
 10
0.578500
 20
1.524000
 30
0.000000
 40
0.035000
  0
CIRCLE
  8
52
 10
0.578500
 20
1.424000
 30
0.000000
 40
0.035000
  0
CIRCLE
  8
52
 10
0.678500
 20
1.424000
 30
0.000000
 40
0.035000
  0
CIRCLE
  8
52
 10
0.778500
 20
1.424000
 30
0.000000
 40
0.035000
  0
CIRCLE
  8
52
 10
0.878500
 20
1.424000
 30
0.000000
 40
0.035000
  0
CIRCLE
  8
52
 10
0.978500
 20
1.424000
 30
0.000000
 40
0.035000
  0
CIRCLE
  8
52
 10
0.678500
 20
1.524000
 30
0.000000
 40
0.035000
  0
CIRCLE
  8
52
 10
0.778500
 20
1.524000
 30
0.000000
 40
0.035000
  0
CIRCLE
  8
52
 10
0.878500
 20
1.524000
 30
0.000000
 40
0.035000
  0
CIRCLE
  8
52
 10
0.978500
 20
1.524000
 30
0.000000
 40
0.035000
  0
CIRCLE
  8
52
 10
1.078500
 20
1.524000
 30
0.000000
 40
0.005000
  0
CIRCLE
  8
52
 10
1.078500
 20
1.424000
 30
0.000000
 40
0.005000
  0
CIRCLE
  8
52
 10
1.178500
 20
1.524000
 30
0.000000
 40
0.005000
  0
CIRCLE
  8
52
 10
1.178500
 20
1.424000
 30
0.000000
 40
0.005000
  0
CIRCLE
  8
52
 10
1.278500
 20
1.524000
 30
0.000000
 40
0.005000
  0
CIRCLE
  8
52
 10
1.278500
 20
1.424000
 30
0.000000
 40
0.005000
  0
CIRCLE
  8
52
 10
1.078500
 20
1.524000
 30
0.000000
 40
0.035000
  0
CIRCLE
  8
52
 10
1.078500
 20
1.424000
 30
0.000000
 40
0.035000
  0
CIRCLE
  8
52
 10
1.178500
 20
1.424000
 30
0.000000
 40
0.035000
  0
CIRCLE
  8
52
 10
1.278500
 20
1.424000
 30
0.000000
 40
0.035000
  0
CIRCLE
  8
52
 10
1.178500
 20
1.524000
 30
0.000000
 40
0.035000
  0
CIRCLE
  8
52
 10
1.278500
 20
1.524000
 30
0.000000
 40
0.035000
  0
INSERT
  8
17
  2
ROUNDP
 10
0.078500
 20
1.424000
 30
0.000000
 41
0.054000
 42
0.054000
 43
1.000000
 50
0.000000
  0
INSERT
  8
17
  2
ROUNDP
 10
0.078500
 20
1.424000
 30
0.000000
 41
0.054000
 42
0.054000
 43
1.000000
 50
0.000000
  0
INSERT
  8
17
  2
OCTAGONP
 10
0.078500
 20
1.524000
 30
0.000000
 41
0.054000
 42
0.054000
 43
1.000000
 50
0.000000
  0
INSERT
  8
17
  2
OCTAGONP
 10
0.078500
 20
1.524000
 30
0.000000
 41
0.054000
 42
0.054000
 43
1.000000
 50
0.000000
  0
INSERT
  8
17
  2
OCTAGONP
 10
0.178500
 20
1.424000
 30
0.000000
 41
0.054000
 42
0.054000
 43
1.000000
 50
0.000000
  0
INSERT
  8
17
  2
OCTAGONP
 10
0.178500
 20
1.424000
 30
0.000000
 41
0.054000
 42
0.054000
 43
1.000000
 50
0.000000
  0
INSERT
  8
17
  2
OCTAGONP
 10
0.178500
 20
1.524000
 30
0.000000
 41
0.054000
 42
0.054000
 43
1.000000
 50
0.000000
  0
INSERT
  8
17
  2
OCTAGONP
 10
0.178500
 20
1.524000
 30
0.000000
 41
0.054000
 42
0.054000
 43
1.000000
 50
0.000000
  0
INSERT
  8
17
  2
OCTAGONP
 10
0.278500
 20
1.424000
 30
0.000000
 41
0.054000
 42
0.054000
 43
1.000000
 50
0.000000
  0
INSERT
  8
17
  2
OCTAGONP
 10
0.278500
 20
1.424000
 30
0.000000
 41
0.054000
 42
0.054000
 43
1.000000
 50
0.000000
  0
INSERT
  8
17
  2
OCTAGONP
 10
0.278500
 20
1.524000
 30
0.000000
 41
0.054000
 42
0.054000
 43
1.000000
 50
0.000000
  0
INSERT
  8
17
  2
OCTAGONP
 10
0.278500
 20
1.524000
 30
0.000000
 41
0.054000
 42
0.054000
 43
1.000000
 50
0.000000
  0
INSERT
  8
17
  2
OCTAGONP
 10
0.378500
 20
1.424000
 30
0.000000
 41
0.054000
 42
0.054000
 43
1.000000
 50
0.000000
  0
INSERT
  8
17
  2
OCTAGONP
 10
0.378500
 20
1.424000
 30
0.000000
 41
0.054000
 42
0.054000
 43
1.000000
 50
0.000000
  0
INSERT
  8
17
  2
OCTAGONP
 10
0.378500
 20
1.524000
 30
0.000000
 41
0.054000
 42
0.054000
 43
1.000000
 50
0.000000
  0
INSERT
  8
17
  2
OCTAGONP
 10
0.378500
 20
1.524000
 30
0.000000
 41
0.054000
 42
0.054000
 43
1.000000
 50
0.000000
  0
INSERT
  8
17
  2
OCTAGONP
 10
0.478500
 20
1.424000
 30
0.000000
 41
0.054000
 42
0.054000
 43
1.000000
 50
0.000000
  0
INSERT
  8
17
  2
OCTAGONP
 10
0.478500
 20
1.424000
 30
0.000000
 41
0.054000
 42
0.054000
 43
1.000000
 50
0.000000
  0
INSERT
  8
17
  2
OCTAGONP
 10
0.478500
 20
1.524000
 30
0.000000
 41
0.054000
 42
0.054000
 43
1.000000
 50
0.000000
  0
INSERT
  8
17
  2
OCTAGONP
 10
0.478500
 20
1.524000
 30
0.000000
 41
0.054000
 42
0.054000
 43
1.000000
 50
0.000000
  0
INSERT
  8
17
  2
OCTAGONP
 10
0.578500
 20
1.424000
 30
0.000000
 41
0.054000
 42
0.054000
 43
1.000000
 50
0.000000
  0
INSERT
  8
17
  2
OCTAGONP
 10
0.578500
 20
1.424000
 30
0.000000
 41
0.054000
 42
0.054000
 43
1.000000
 50
0.000000
  0
INSERT
  8
17
  2
OCTAGONP
 10
0.578500
 20
1.524000
 30
0.000000
 41
0.054000
 42
0.054000
 43
1.000000
 50
0.000000
  0
INSERT
  8
17
  2
OCTAGONP
 10
0.578500
 20
1.524000
 30
0.000000
 41
0.054000
 42
0.054000
 43
1.000000
 50
0.000000
  0
INSERT
  8
17
  2
OCTAGONP
 10
0.678500
 20
1.424000
 30
0.000000
 41
0.054000
 42
0.054000
 43
1.000000
 50
0.000000
  0
INSERT
  8
17
  2
OCTAGONP
 10
0.678500
 20
1.424000
 30
0.000000
 41
0.054000
 42
0.054000
 43
1.000000
 50
0.000000
  0
INSERT
  8
17
  2
OCTAGONP
 10
0.678500
 20
1.524000
 30
0.000000
 41
0.054000
 42
0.054000
 43
1.000000
 50
0.000000
  0
INSERT
  8
17
  2
OCTAGONP
 10
0.678500
 20
1.524000
 30
0.000000
 41
0.054000
 42
0.054000
 43
1.000000
 50
0.000000
  0
INSERT
  8
17
  2
OCTAGONP
 10
0.778500
 20
1.424000
 30
0.000000
 41
0.054000
 42
0.054000
 43
1.000000
 50
0.000000
  0
INSERT
  8
17
  2
OCTAGONP
 10
0.778500
 20
1.424000
 30
0.000000
 41
0.054000
 42
0.054000
 43
1.000000
 50
0.000000
  0
INSERT
  8
17
  2
OCTAGONP
 10
0.778500
 20
1.524000
 30
0.000000
 41
0.054000
 42
0.054000
 43
1.000000
 50
0.000000
  0
INSERT
  8
17
  2
OCTAGONP
 10
0.778500
 20
1.524000
 30
0.000000
 41
0.054000
 42
0.054000
 43
1.000000
 50
0.000000
  0
INSERT
  8
17
  2
OCTAGONP
 10
0.878500
 20
1.424000
 30
0.000000
 41
0.054000
 42
0.054000
 43
1.000000
 50
0.000000
  0
INSERT
  8
17
  2
OCTAGONP
 10
0.878500
 20
1.424000
 30
0.000000
 41
0.054000
 42
0.054000
 43
1.000000
 50
0.000000
  0
INSERT
  8
17
  2
OCTAGONP
 10
0.878500
 20
1.524000
 30
0.000000
 41
0.054000
 42
0.054000
 43
1.000000
 50
0.000000
  0
INSERT
  8
17
  2
OCTAGONP
 10
0.878500
 20
1.524000
 30
0.000000
 41
0.054000
 42
0.054000
 43
1.000000
 50
0.000000
  0
INSERT
  8
17
  2
OCTAGONP
 10
0.978500
 20
1.424000
 30
0.000000
 41
0.054000
 42
0.054000
 43
1.000000
 50
0.000000
  0
INSERT
  8
17
  2
OCTAGONP
 10
0.978500
 20
1.424000
 30
0.000000
 41
0.054000
 42
0.054000
 43
1.000000
 50
0.000000
  0
INSERT
  8
17
  2
OCTAGONP
 10
0.978500
 20
1.524000
 30
0.000000
 41
0.054000
 42
0.054000
 43
1.000000
 50
0.000000
  0
INSERT
  8
17
  2
OCTAGONP
 10
0.978500
 20
1.524000
 30
0.000000
 41
0.054000
 42
0.054000
 43
1.000000
 50
0.000000
  0
INSERT
  8
17
  2
OCTAGONP
 10
1.078500
 20
1.424000
 30
0.000000
 41
0.054000
 42
0.054000
 43
1.000000
 50
0.000000
  0
INSERT
  8
17
  2
OCTAGONP
 10
1.078500
 20
1.424000
 30
0.000000
 41
0.054000
 42
0.054000
 43
1.000000
 50
0.000000
  0
INSERT
  8
17
  2
OCTAGONP
 10
1.078500
 20
1.524000
 30
0.000000
 41
0.054000
 42
0.054000
 43
1.000000
 50
0.000000
  0
INSERT
  8
17
  2
OCTAGONP
 10
1.078500
 20
1.524000
 30
0.000000
 41
0.054000
 42
0.054000
 43
1.000000
 50
0.000000
  0
INSERT
  8
17
  2
OCTAGONP
 10
1.178500
 20
1.424000
 30
0.000000
 41
0.054000
 42
0.054000
 43
1.000000
 50
0.000000
  0
INSERT
  8
17
  2
OCTAGONP
 10
1.178500
 20
1.424000
 30
0.000000
 41
0.054000
 42
0.054000
 43
1.000000
 50
0.000000
  0
INSERT
  8
17
  2
OCTAGONP
 10
1.178500
 20
1.524000
 30
0.000000
 41
0.054000
 42
0.054000
 43
1.000000
 50
0.000000
  0
INSERT
  8
17
  2
OCTAGONP
 10
1.178500
 20
1.524000
 30
0.000000
 41
0.054000
 42
0.054000
 43
1.000000
 50
0.000000
  0
INSERT
  8
17
  2
OCTAGONP
 10
1.278500
 20
1.424000
 30
0.000000
 41
0.054000
 42
0.054000
 43
1.000000
 50
0.000000
  0
INSERT
  8
17
  2
OCTAGONP
 10
1.278500
 20
1.424000
 30
0.000000
 41
0.054000
 42
0.054000
 43
1.000000
 50
0.000000
  0
INSERT
  8
17
  2
OCTAGONP
 10
1.278500
 20
1.524000
 30
0.000000
 41
0.054000
 42
0.054000
 43
1.000000
 50
0.000000
  0
INSERT
  8
17
  2
OCTAGONP
 10
1.278500
 20
1.524000
 30
0.000000
 41
0.054000
 42
0.054000
 43
1.000000
 50
0.000000
  0
TEXT
  7
ISOCP
  8
26
 10
0.997250
 20
1.289000
 30
0.000000
 40
0.050000
  1
P1
 71
2
 72
2
 73
3
 11
0.997250
 21
1.289000
 31
0.000000
  0
TEXT
  7
ISOCP
  8
28
 10
0.028500
 20
1.659000
 30
0.000000
 40
0.050000
  1

 71
2
 72
2
 73
3
 11
0.028500
 21
1.659000
 31
0.000000
  0
POINT
  8
24
 10
0.800000
 20
0.825000
 30
0.000000
  0
LINE
  8
22
 10
0.680000
 20
0.875000
 30
0.000000
 11
0.900000
 21
0.875000
 31
0.000000
  0
LINE
  8
22
 10
0.680000
 20
0.575000
 30
0.000000
 11
0.900000
 21
0.575000
 31
0.000000
  0
LINE
  8
22
 10
0.680000
 20
0.575000
 30
0.000000
 11
0.680000
 21
0.875000
 31
0.000000
  0
LINE
  8
22
 10
0.900000
 20
0.575000
 30
0.000000
 11
0.900000
 21
0.625000
 31
0.000000
  0
LINE
  8
22
 10
0.900000
 20
0.625000
 30
0.000000
 11
0.900000
 21
0.825000
 31
0.000000
  0
LINE
  8
22
 10
0.900000
 20
0.825000
 30
0.000000
 11
0.900000
 21
0.875000
 31
0.000000
  0
LINE
  8
22
 10
0.900000
 20
0.825000
 30
0.000000
 11
0.850000
 21
0.825000
 31
0.000000
  0
LINE
  8
22
 10
0.850000
 20
0.825000
 30
0.000000
 11
0.850000
 21
0.625000
 31
0.000000
  0
LINE
  8
22
 10
0.850000
 20
0.625000
 30
0.000000
 11
0.900000
 21
0.625000
 31
0.000000
  0
INSERT
  8
17
  2
SQUAREP
 10
0.800000
 20
0.825000
 30
0.000000
 41
0.074000
 42
0.074000
 43
1.000000
 50
270.000000
  0
INSERT
  8
17
  2
SQUAREP
 10
0.800000
 20
0.825000
 30
0.000000
 41
0.074000
 42
0.074000
 43
1.000000
 50
270.000000
  0
INSERT
  8
17
  2
ROUNDP
 10
0.800000
 20
0.725000
 30
0.000000
 41
0.074000
 42
0.074000
 43
1.000000
 50
270.000000
  0
INSERT
  8
17
  2
ROUNDP
 10
0.800000
 20
0.725000
 30
0.000000
 41
0.074000
 42
0.074000
 43
1.000000
 50
270.000000
  0
INSERT
  8
17
  2
ROUNDP
 10
0.800000
 20
0.625000
 30
0.000000
 41
0.074000
 42
0.074000
 43
1.000000
 50
270.000000
  0
INSERT
  8
17
  2
ROUNDP
 10
0.800000
 20
0.625000
 30
0.000000
 41
0.074000
 42
0.074000
 43
1.000000
 50
270.000000
  0
TEXT
  7
ISOCP
  8
22
 10
0.625000
 20
0.818750
 30
0.000000
 40
0.050000
  1
P2
 71
2
  0
POINT
  8
24
 10
0.635000
 20
0.170000
 30
0.000000
  0
LINE
  8
22
 10
0.755000
 20
0.120000
 30
0.000000
 11
0.535000
 21
0.120000
 31
0.000000
  0
LINE
  8
22
 10
0.755000
 20
0.520000
 30
0.000000
 11
0.535000
 21
0.520000
 31
0.000000
  0
LINE
  8
22
 10
0.755000
 20
0.520000
 30
0.000000
 11
0.755000
 21
0.120000
 31
0.000000
  0
LINE
  8
22
 10
0.535000
 20
0.520000
 30
0.000000
 11
0.535000
 21
0.470000
 31
0.000000
  0
LINE
  8
22
 10
0.535000
 20
0.470000
 30
0.000000
 11
0.535000
 21
0.170000
 31
0.000000
  0
LINE
  8
22
 10
0.535000
 20
0.170000
 30
0.000000
 11
0.535000
 21
0.120000
 31
0.000000
  0
LINE
  8
22
 10
0.535000
 20
0.170000
 30
0.000000
 11
0.585000
 21
0.170000
 31
0.000000
  0
LINE
  8
22
 10
0.585000
 20
0.170000
 30
0.000000
 11
0.585000
 21
0.470000
 31
0.000000
  0
LINE
  8
22
 10
0.585000
 20
0.470000
 30
0.000000
 11
0.535000
 21
0.470000
 31
0.000000
  0
INSERT
  8
17
  2
SQUAREP
 10
0.635000
 20
0.170000
 30
0.000000
 41
0.074000
 42
0.074000
 43
1.000000
 50
90.000000
  0
INSERT
  8
17
  2
SQUAREP
 10
0.635000
 20
0.170000
 30
0.000000
 41
0.074000
 42
0.074000
 43
1.000000
 50
90.000000
  0
INSERT
  8
17
  2
ROUNDP
 10
0.635000
 20
0.270000
 30
0.000000
 41
0.074000
 42
0.074000
 43
1.000000
 50
90.000000
  0
INSERT
  8
17
  2
ROUNDP
 10
0.635000
 20
0.270000
 30
0.000000
 41
0.074000
 42
0.074000
 43
1.000000
 50
90.000000
  0
INSERT
  8
17
  2
ROUNDP
 10
0.635000
 20
0.370000
 30
0.000000
 41
0.074000
 42
0.074000
 43
1.000000
 50
90.000000
  0
INSERT
  8
17
  2
ROUNDP
 10
0.635000
 20
0.370000
 30
0.000000
 41
0.074000
 42
0.074000
 43
1.000000
 50
90.000000
  0
INSERT
  8
17
  2
ROUNDP
 10
0.635000
 20
0.470000
 30
0.000000
 41
0.074000
 42
0.074000
 43
1.000000
 50
90.000000
  0
INSERT
  8
17
  2
ROUNDP
 10
0.635000
 20
0.470000
 30
0.000000
 41
0.074000
 42
0.074000
 43
1.000000
 50
90.000000
  0
TEXT
  7
ISOCP
  8
22
 10
0.878750
 20
0.463750
 30
0.000000
 40
0.050000
  1
P3
 71
2
  0
POINT
  8
23
 10
0.756250
 20
1.118750
 30
0.000000
  0
LINE
  8
21
 10
0.718750
 20
1.143750
 30
0.000000
 11
0.747306
 21
1.200861
 31
0.000000
  0
ARC
  8
21
 10
0.756250
 20
1.196389
 30
0.000000
 40
0.010000
 50
26.565367
 51
153.434633
  0
LINE
  8
21
 10
0.765194
 20
1.200861
 30
0.000000
 11
0.793750
 21
1.143750
 31
0.000000
  0
LINE
  8
21
 10
0.793750
 20
1.143750
 30
0.000000
 11
0.806250
 21
1.118750
 31
0.000000
  0
LINE
  8
21
 10
0.718750
 20
1.143750
 30
0.000000
 11
0.706250
 21
1.118750
 31
0.000000
  0
LINE
  8
21
 10
0.718750
 20
1.143750
 30
0.000000
 11
0.793750
 21
1.143750
 31
0.000000
  0
LINE
  8
21
 10
0.706250
 20
1.118750
 30
0.000000
 11
0.747306
 21
1.036639
 31
0.000000
  0
ARC
  8
21
 10
0.756250
 20
1.041111
 30
0.000000
 40
0.010000
 50
206.565367
 51
333.434633
  0
LINE
  8
21
 10
0.765194
 20
1.036639
 30
0.000000
 11
0.806250
 21
1.118750
 31
0.000000
  0
LINE
  8
21
 10
0.806250
 20
1.118750
 30
0.000000
 11
0.818750
 21
1.143750
 31
0.000000
  0
LINE
  8
21
 10
0.706250
 20
1.118750
 30
0.000000
 11
0.693750
 21
1.143750
 31
0.000000
  0
LINE
  8
21
 10
0.706250
 20
1.118750
 30
0.000000
 11
0.693750
 21
1.093750
 31
0.000000
  0
LINE
  8
21
 10
0.806250
 20
1.118750
 30
0.000000
 11
0.818750
 21
1.093750
 31
0.000000
  0
CIRCLE
  8
21
 10
0.756250
 20
1.118750
 30
0.000000
 40
0.128695
  0
LINE
  8
19
 10
0.078500
 20
1.524000
 30
0.000000
 11
0.178500
 21
1.524000
 31
0.000000
  0
LINE
  8
19
 10
0.635000
 20
0.470000
 30
0.000000
 11
0.178500
 21
1.524000
 31
0.000000
  0
LINE
  8
19
 10
0.800000
 20
0.725000
 30
0.000000
 11
0.635000
 21
0.470000
 31
0.000000
  0
LINE
  8
19
 10
0.278500
 20
1.524000
 30
0.000000
 11
0.478500
 21
1.424000
 31
0.000000
  0
LINE
  8
19
 10
0.635000
 20
0.170000
 30
0.000000
 11
0.478500
 21
1.424000
 31
0.000000
  0
LINE
  8
19
 10
0.800000
 20
0.825000
 30
0.000000
 11
0.635000
 21
0.170000
 31
0.000000
  0
INSERT
  8
18
  2
ROUNDV
 10
1.003500
 20
0.125000
 30
0.000000
 41
0.200000
 42
0.200000
 43
1.000000
 50
0.000000
  0
INSERT
  8
18
  2
ROUNDV
 10
1.003500
 20
0.125000
 30
0.000000
 41
0.200000
 42
0.200000
 43
1.000000
 50
0.000000
  0
LINE
  8
19
 10
0.635000
 20
0.370000
 30
0.000000
 11
0.678500
 21
1.424000
 31
0.000000
  0
LINE
  8
19
 10
0.800000
 20
0.625000
 30
0.000000
 11
0.578500
 21
1.424000
 31
0.000000
  0
ENDSEC
  0
EOF
